<svg width="34" height="26" viewBox="0 0 34 26" fill="none" xmlns="http://www.w3.org/2000/svg">
<path d="M0.651367 2.5047C0.651367 1.14135 1.75658 0.0361328 3.11994 0.0361328H31.0051C32.3685 0.0361328 33.4737 1.14135 33.4737 2.5047C33.4737 3.86806 32.3685 4.97327 31.0051 4.97327H3.11994C1.75658 4.97327 0.651367 3.86806 0.651367 2.5047Z" fill="#3E2A18"/>
<path d="M0.651367 12.9998C0.651367 11.6365 1.75658 10.5312 3.11994 10.5312H31.0051C32.3685 10.5312 33.4737 11.6365 33.4737 12.9998C33.4737 14.3632 32.3685 15.4684 31.0051 15.4684H3.11994C1.75658 15.4684 0.651367 14.3632 0.651367 12.9998Z" fill="#3E2A18"/>
<path d="M0.651367 23.4954C0.651367 22.1321 1.75658 21.0269 3.11994 21.0269H31.0051C32.3685 21.0269 33.4737 22.1321 33.4737 23.4954C33.4737 24.8588 32.3685 25.964 31.0051 25.964H3.11994C1.75658 25.964 0.651367 24.8588 0.651367 23.4954Z" fill="#3E2A18"/>
</svg>
