<svg width="33" height="32" viewBox="0 0 33 32" fill="none" xmlns="http://www.w3.org/2000/svg">
<path fill-rule="evenodd" clip-rule="evenodd" d="M29.4965 13.4855L29.5 18.467C29.4654 18.9416 29.4209 19.4156 29.3664 19.8887C29.2752 20.6799 28.6414 21.3181 27.8454 21.4084C25.3525 21.6911 22.7728 21.6911 20.2799 21.4084C19.484 21.3181 18.8502 20.6799 18.759 19.8887C18.4612 17.305 18.4612 14.695 18.759 12.1113C18.8502 11.3201 19.484 10.6819 20.2799 10.5916C22.7728 10.3089 25.3525 10.3089 27.8454 10.5916C28.6414 10.6819 29.2752 11.3201 29.3664 12.1113C29.4191 12.5686 29.4625 13.0268 29.4965 13.4855ZM24.0627 13.9375C22.9402 13.9375 22.0302 14.8609 22.0302 16C22.0302 17.1391 22.9402 18.0625 24.0627 18.0625C25.1852 18.0625 26.0952 17.1391 26.0952 16C26.0952 14.8609 25.1852 13.9375 24.0627 13.9375Z" fill="#FFF8E2"/>
<path d="M28.6746 7.80453C28.8853 8.17477 28.4899 8.58936 28.0712 8.54187C25.4282 8.24212 22.6971 8.24212 20.0542 8.54187C18.3342 8.73694 16.9431 10.1113 16.7402 11.8717C16.4241 14.6145 16.4241 17.3854 16.7402 20.1283C16.9431 21.8887 18.3342 23.2631 20.0542 23.4581C22.6971 23.7579 25.4282 23.7579 28.0712 23.4581C28.4927 23.4103 28.8913 23.8278 28.6786 24.2001C27.6236 26.0465 25.7427 27.3352 23.557 27.5686L22.6737 27.6629C18.1875 28.1419 13.6625 28.1103 9.18314 27.5687L8.59786 27.4979C6.18305 27.2059 4.26971 25.2914 3.94806 22.8453C3.35065 18.3019 3.35065 13.6981 3.94806 9.1547C4.26971 6.7086 6.18305 4.79409 8.59786 4.50209L9.18314 4.43131C13.6625 3.88966 18.1875 3.85807 22.6737 4.33713L23.557 4.43145C25.7445 4.66504 27.6225 5.95564 28.6746 7.80453Z" fill="#FFF8E2"/>
</svg>
