<svg width="32" height="32" viewBox="0 0 32 32" fill="none" xmlns="http://www.w3.org/2000/svg">
<g opacity="0.5">
<path d="M26.5857 29.4141C27.3668 30.1951 28.6331 30.1951 29.4142 29.4141C30.1952 28.633 30.1952 27.3667 29.4142 26.5857L26.5857 29.4141ZM5.41428 2.58579C4.63323 1.80474 3.3669 1.80474 2.58586 2.58579C1.80481 3.36683 1.80481 4.63316 2.58586 5.41421L5.41428 2.58579ZM29.4142 5.41421C30.1953 4.63317 30.1953 3.36683 29.4142 2.58579C28.6332 1.80474 27.3668 1.80474 26.5858 2.58579L29.4142 5.41421ZM2.58579 26.5858C1.80474 27.3668 1.80474 28.6332 2.58579 29.4142C3.36683 30.1953 4.63317 30.1953 5.41421 29.4142L2.58579 26.5858ZM29.4142 26.5857L5.41428 2.58579L2.58586 5.41421L26.5857 29.4141L29.4142 26.5857ZM26.5858 2.58579L2.58579 26.5858L5.41421 29.4142L29.4142 5.41421L26.5858 2.58579Z" fill="#FFF8E2"/>
</g>
</svg>
