<svg width="32" height="32" viewBox="0 0 32 32" fill="none" xmlns="http://www.w3.org/2000/svg">
<path fill-rule="evenodd" clip-rule="evenodd" d="M31.4198 6.00295C31.4198 8.99198 28.9967 11.4151 26.0077 11.4151C24.4252 11.4151 23.0013 10.7359 22.0117 9.65305L11.193 15.0625C11.2618 15.407 11.2979 15.7632 11.2979 16.1279C11.2979 16.2466 11.2941 16.3643 11.2866 16.481L22.2447 22.1067C23.2187 21.1644 24.5455 20.5845 26.0077 20.5845C28.9967 20.5845 31.4198 23.0076 31.4198 25.9966C31.4198 28.9856 28.9967 31.4087 26.0077 31.4087C23.0187 31.4087 20.5956 28.9856 20.5956 25.9966C20.5956 25.5537 20.6488 25.1232 20.7492 24.7112L10.2544 19.3233C9.26961 20.6673 7.6796 21.5401 5.88576 21.5401C2.89672 21.5401 0.473633 19.117 0.473633 16.1279C0.473633 13.1389 2.89672 10.7158 5.88576 10.7158C7.4301 10.7158 8.82336 11.3627 9.80941 12.4002L20.6807 6.96443C20.6248 6.65239 20.5956 6.33108 20.5956 6.00295C20.5956 3.01391 23.0187 0.59082 26.0077 0.59082C28.9967 0.59082 31.4198 3.01391 31.4198 6.00295Z" fill="#3E2A18"/>
</svg>
