<svg width="32" height="32" viewBox="0 0 32 32" fill="none" xmlns="http://www.w3.org/2000/svg">
<g opacity="0.5">
<path d="M25.0588 0C22.3299 0 20.1176 2.26214 20.1176 5.05263C20.1176 5.49806 20.174 5.93003 20.2799 6.34149C20.1631 6.36614 20.048 6.40863 19.9379 6.47002L15.3978 9.00232L9.62243 12.3769C9.5634 12.4114 9.5082 12.4502 9.45701 12.4925C8.72009 12.0459 7.85992 11.7895 6.94118 11.7895C4.21224 11.7895 2 14.0516 2 16.8421C2 19.6326 4.21224 21.8947 6.94118 21.8947C8.38082 21.8947 9.67666 21.2652 10.5798 20.2606L15.4 22.9989L20.2661 25.7131C20.1692 26.1081 20.1176 26.5216 20.1176 26.9474C20.1176 29.7379 22.3299 32 25.0588 32C27.7878 32 30 29.7379 30 26.9474C30 24.1569 27.7878 21.8947 25.0588 21.8947C23.635 21.8947 22.3519 22.5105 21.4502 23.4958L16.5957 20.7882L11.7445 18.0323C11.8346 17.6506 11.8824 17.2521 11.8824 16.8421C11.8824 15.9331 11.6476 15.0803 11.2368 14.3433L16.6023 11.2082L21.1209 8.68786C21.2314 8.62627 21.3289 8.54995 21.4126 8.46259C22.316 9.47213 23.6151 10.1053 25.0588 10.1053C27.7878 10.1053 30 7.84312 30 5.05263C30 2.26214 27.7878 0 25.0588 0Z" fill="#FFF8E2"/>
</g>
</svg>
