<svg width="48" height="48" viewBox="0 0 48 48" fill="none" xmlns="http://www.w3.org/2000/svg">
<circle cx="24" cy="24" r="24" fill="#5865F2"/>
<path d="M35.7824 13.1553C33.6154 12.1577 31.2916 11.4227 28.8619 11.0018C28.8176 10.9936 28.7734 11.0139 28.7506 11.0546C28.4517 11.5878 28.1207 12.2836 27.8889 12.8304C25.2756 12.4379 22.6757 12.4379 20.116 12.8304C19.8841 12.2714 19.541 11.5878 19.2408 11.0546C19.218 11.0153 19.1738 10.995 19.1296 11.0018C16.7012 11.4214 14.3774 12.1563 12.209 13.1553C12.1902 13.1634 12.1741 13.1769 12.1635 13.1945C7.75564 19.8012 6.54815 26.2454 7.14051 32.6098C7.14319 32.6409 7.16061 32.6707 7.18473 32.6896C10.0929 34.8323 12.9099 36.1331 15.6746 36.9953C15.7189 37.0088 15.7658 36.9926 15.7939 36.956C16.4479 36.06 17.0309 35.1152 17.5308 34.1217C17.5603 34.0635 17.5321 33.9945 17.4718 33.9715C16.5471 33.6195 15.6666 33.1905 14.8196 32.7032C14.7526 32.6639 14.7473 32.5678 14.8089 32.5218C14.9871 32.3878 15.1654 32.2484 15.3356 32.1076C15.3664 32.0819 15.4093 32.0765 15.4455 32.0927C21.0098 34.6415 27.0339 34.6415 32.5325 32.0927C32.5687 32.0751 32.6116 32.0806 32.6438 32.1063C32.814 32.247 32.9922 32.3878 33.1718 32.5218C33.2334 32.5678 33.2294 32.6639 33.1624 32.7032C32.3154 33.1999 31.4349 33.6195 30.5089 33.9701C30.4486 33.9931 30.4218 34.0635 30.4513 34.1217C30.9619 35.1138 31.5448 36.0586 32.1868 36.9547C32.2136 36.9926 32.2618 37.0088 32.3061 36.9953C35.0842 36.1331 37.9012 34.8323 40.8094 32.6896C40.8348 32.6707 40.8509 32.6423 40.8536 32.6111C41.5625 25.2532 39.6662 18.8618 35.8266 13.1959C35.8173 13.1769 35.8012 13.1634 35.7824 13.1553ZM18.3617 28.7346C16.6865 28.7346 15.3061 27.1916 15.3061 25.2966C15.3061 23.4016 16.6597 21.8586 18.3617 21.8586C20.0771 21.8586 21.4441 23.4151 21.4172 25.2966C21.4172 27.1916 20.0637 28.7346 18.3617 28.7346ZM29.6592 28.7346C27.984 28.7346 26.6037 27.1916 26.6037 25.2966C26.6037 23.4016 27.9572 21.8586 29.6592 21.8586C31.3746 21.8586 32.7416 23.4151 32.7148 25.2966C32.7148 27.1916 31.3746 28.7346 29.6592 28.7346Z" fill="white"/>
</svg>
