<svg width="31" height="31" viewBox="0 0 31 31" fill="none" xmlns="http://www.w3.org/2000/svg">
<path d="M25.3572 28.8927C26.3335 29.869 27.9165 29.869 28.8928 28.8927C29.8691 27.9164 29.8691 26.3335 28.8928 25.3572L25.3572 28.8927ZM5.64283 2.10723C4.66652 1.13092 3.08361 1.13092 2.1073 2.10723C1.13099 3.08354 1.13099 4.66646 2.1073 5.64277L5.64283 2.10723ZM28.8928 5.64277C29.8691 4.66646 29.8691 3.08354 28.8928 2.10723C27.9165 1.13092 26.3336 1.13092 25.3573 2.10723L28.8928 5.64277ZM2.10723 25.3573C1.13092 26.3336 1.13092 27.9165 2.10723 28.8928C3.08354 29.8691 4.66646 29.8691 5.64277 28.8928L2.10723 25.3573ZM28.8928 25.3572L5.64283 2.10723L2.1073 5.64277L25.3572 28.8927L28.8928 25.3572ZM25.3573 2.10723L2.10723 25.3573L5.64277 28.8928L28.8928 5.64277L25.3573 2.10723Z" fill="#3E2A18"/>
</svg>
